<svg xmlns="http://www.w3.org/2000/svg" viewBox="-647 -850 1700 1700" role="img" aria-label="Ameet Babbar">
  <path d="M-64.5858 807.323c-1.9572-13.7-1.9572-29.357-1.9572-46.972V-668.365c0-99.815-62.629-150.701-185.929-150.701-117.429 0-176.143 50.886-176.143 150.701v506.9h129.172v-520.6c0-27.4 15.657-41.1 46.971-41.1 31.314 0 46.972 13.7 46.972 41.1v495.158c0 52.842-37.186 105.685-111.558 152.657-74.371 46.971-111.557 90.029-111.557 131.129v587.144c0 72.414 52.843 135.043 125.257 135.043 43.058 0 76.329-23.486 99.815-72.415 1.957 27.4 3.914 46.972 3.914 60.672h135.043ZM-205.5 664.451c0 27.4-15.658 46.972-46.972 46.972-31.314 0-46.971-13.7-46.971-43.058V92.964c0-41.1 7.828-52.843 93.943-105.686v677.173ZM428.615 155.593c0-80.243-46.972-125.257-142.872-135.043v-5.871c95.9-17.614 142.872-66.543 142.872-146.786v-487.33c0-117.429-68.5-176.143-203.543-176.143H54.8v1602.903h170.272c135.043 0 203.543-58.715 203.543-176.143V155.593ZM281.829-104.707c0 41.1-17.614 62.629-52.843 62.629h-31.314V-685.98h31.314c35.229 0 52.843 21.529 52.843 64.586v516.687ZM281.829 625.308c0 41.1-17.614 62.629-52.843 62.629h-31.314V75.35h31.314c35.229 0 52.843 21.529 52.843 62.629v487.329Z"/>
  <circle cx="688.429" cy="671.25" r="147.816" fill="#d9382c"/>
</svg>
